<svg width="32" height="32" viewBox="0 0 32 32" fill="none" xmlns="http://www.w3.org/2000/svg">
<rect width="32" height="32" rx="8" fill="url(#paint0_linear_60_200)"/>
<g clip-path="url(#clip0_60_200)">
<g filter="url(#filter0_d_60_200)">
<path d="M19.99 10.954C20.1726 10.7696 20.4208 10.6651 20.6804 10.6632C20.9399 10.6613 21.1896 10.7622 21.3749 10.9438C21.5603 11.1255 21.6662 11.3731 21.6695 11.6326C21.6728 11.8921 21.5733 12.1423 21.3927 12.3287L16.166 18.8627C16.0762 18.9593 15.9678 19.0369 15.8474 19.0908C15.727 19.1447 15.5969 19.1737 15.465 19.1762C15.3331 19.1787 15.202 19.1546 15.0796 19.1053C14.9572 19.056 14.846 18.9826 14.7527 18.8893L11.2873 15.4253C11.1032 15.2411 10.9998 14.9913 10.9998 14.7308C10.9999 14.4703 11.1034 14.2205 11.2877 14.0363C11.4719 13.8522 11.7217 13.7488 11.9822 13.7488C12.2427 13.7489 12.4925 13.8524 12.6767 14.0367L15.4173 16.778L19.964 10.9847C19.9722 10.9741 19.9812 10.9641 19.9907 10.9547L19.99 10.954Z" fill="white"/>
</g>
</g>
<defs>
<filter id="filter0_d_60_200" x="10.9998" y="10.6631" width="10.6698" height="10.5132" filterUnits="userSpaceOnUse" color-interpolation-filters="sRGB">
<feFlood flood-opacity="0" result="BackgroundImageFix"/>
<feColorMatrix in="SourceAlpha" type="matrix" values="0 0 0 0 0 0 0 0 0 0 0 0 0 0 0 0 0 0 127 0" result="hardAlpha"/>
<feOffset dy="2"/>
<feColorMatrix type="matrix" values="0 0 0 0 0 0 0 0 0 0 0 0 0 0 0 0 0 0 0.1 0"/>
<feBlend mode="normal" in2="BackgroundImageFix" result="effect1_dropShadow_60_200"/>
<feBlend mode="normal" in="SourceGraphic" in2="effect1_dropShadow_60_200" result="shape"/>
</filter>
<linearGradient id="paint0_linear_60_200" x1="16" y1="0" x2="16" y2="32" gradientUnits="userSpaceOnUse">
<stop stop-color="#89F09C"/>
<stop offset="1" stop-color="#3CC755"/>
</linearGradient>
<clipPath id="clip0_60_200">
<rect width="11" height="12" fill="white" transform="translate(11 10)"/>
</clipPath>
</defs>
</svg>
